<?xml version="1.0" encoding="utf-8"?>
<!-- Generator: Adobe Illustrator 27.3.1, SVG Export Plug-In . SVG Version: 6.00 Build 0)  -->
<svg version="1.1" id="Layer_1" xmlns="http://www.w3.org/2000/svg" xmlns:xlink="http://www.w3.org/1999/xlink" x="0px" y="0px"
	 viewBox="0 0 522.4 294.1" style="enable-background:new 0 0 522.4 294.1;" xml:space="preserve">
<style type="text/css">
	.st0{fill:#133332;}
</style>
<path class="st0" d="M0,280.1l18.8-50.5h6.5l18.5,50.5h-5.9l-5.8-16.3H11.6l-5.9,16.3H0z M21.8,235.2l-8.6,23.9h17.3L21.8,235.2z"/>
<path class="st0" d="M68.6,280.9c-5.1,0.2-10-2.5-12.5-7v20.2h-5.2v-49.8h5.2v6.5c2.7-4.8,6.8-7.2,12.5-7.2
	c4.5-0.2,8.8,1.7,11.9,5.1c3,3.4,4.6,7.9,4.6,13.5v0c0,5.7-1.5,10.2-4.6,13.6C77.5,279.2,73.2,281.1,68.6,280.9z M67.6,276.3
	c3.3,0.1,6.5-1.2,8.7-3.7c2.1-2.5,3.2-5.9,3.2-10.2v-0.6c0-4.3-1.1-7.7-3.1-10.1c-2.2-2.5-5.4-3.8-8.7-3.6c-3.3-0.1-6.4,1.3-8.6,3.8
	c-2.1,2.5-3.1,5.9-3.1,10.1v0.6c0,4.1,1.1,7.4,3.1,10C61.1,275.1,64.3,276.5,67.6,276.3z"/>
<path class="st0" d="M110.9,280.9c-5.1,0.2-10-2.5-12.5-7v20.2h-5.3v-49.8h5.2v6.5c2.7-4.8,6.8-7.2,12.5-7.2
	c4.5-0.2,8.9,1.7,11.9,5.1c3,3.4,4.6,7.9,4.6,13.5v0c0,5.7-1.5,10.2-4.6,13.6C119.7,279.1,115.4,281,110.9,280.9z M109.8,276.3
	c3.3,0.1,6.5-1.2,8.7-3.7c2.1-2.5,3.2-5.9,3.2-10.2v-0.6c0-4.3-1.1-7.7-3.2-10.1c-2.2-2.5-5.4-3.8-8.7-3.6c-3.3-0.1-6.5,1.3-8.6,3.8
	c-2.1,2.5-3.1,5.9-3.1,10.1v0.6c0,4.1,1.1,7.4,3.1,10C103.4,275.1,106.5,276.5,109.8,276.3L109.8,276.3z"/>
<path class="st0" d="M140.7,244.3v7.4c0.5-2.2,1.7-4.2,3.5-5.6c1.7-1.3,4.1-1.9,7.3-1.9h1.7v5.1H150c-3.5,0-5.9,1-7.2,3
	s-2,5.3-2,9.9v18h-5.3v-35.8H140.7z"/>
<path class="st0" d="M173.9,280.8c-5.4,0-9.6-1.7-12.8-5.1c-3.2-3.4-4.8-7.9-4.8-13.4c0-5.5,1.6-10,4.9-13.5
	c3.2-3.5,7.8-5.4,12.5-5.2c5.1,0,9.1,1.6,12.1,4.9s4.4,7.8,4.4,13.5v2h-28.6c0,3.4,1.3,6.6,3.6,9.1c2.3,2.3,5.5,3.5,8.7,3.4
	c6.1,0,10.1-2.5,11.9-7.6l4.6,1.8c-1.1,3-3.2,5.6-5.9,7.4C181.9,279.9,178.3,280.8,173.9,280.8z M173.7,247.9
	c-3.1-0.1-6.1,1.1-8.4,3.3c-2.3,2.3-3.6,5.4-3.7,8.7h23.2c-0.1-3.8-1.1-6.7-3.1-8.8C179.5,248.9,176.6,247.8,173.7,247.9z"/>
<path class="st0" d="M214.1,280.8c-5.3,0-9.5-1.7-12.7-5.2c-3.2-3.4-4.8-7.9-4.8-13.5c0-5.5,1.6-10,4.9-13.4
	c3.3-3.5,7.9-5.3,12.7-5.2c3.7-0.1,7.4,1,10.5,3.2c2.8,2.2,4.8,5.4,5.7,8.9l-5.1,1.4c-1.4-6.1-5-9.1-11-9.1
	c-3.4-0.1-6.7,1.3-8.9,3.8c-2.2,2.6-3.3,6-3.3,10.2v0.3c0,4.2,1.1,7.6,3.3,10.2c2.2,2.6,5.5,4,8.9,3.8c6.1,0,9.9-3.1,11.2-9.2
	l5.2,1.4C228.9,276.1,221.9,281.4,214.1,280.8z"/>
<path class="st0" d="M243.8,231.9v6h-6v-6H243.8z M243.5,244.3v35.8h-5.4v-35.8H243.5z"/>
<path class="st0" d="M264,281c-3.7,0-6.6-0.9-8.8-2.8c-2.2-1.8-3.4-4.5-3.3-7.4c0-1.4,0.2-2.7,0.8-4c0.4-1.1,1.1-2,1.9-2.8
	c0.9-0.8,1.9-1.5,3-2c1.2-0.6,2.4-1,3.7-1.4c1.1-0.3,2.6-0.7,4.3-1c0.6-0.1,1.6-0.4,3.1-0.7s2.5-0.5,3-0.7c0.5-0.2,1.3-0.4,2.2-0.7
	c0.7-0.2,1.4-0.5,2-1c0.4-0.3,0.8-0.7,1.1-1.2v-0.5c0-4.6-2.9-6.9-8.8-6.9c-6.4,0-9.6,2.5-9.8,7.5v0.4h-5.4c0.1-4,1.5-7,4.2-9.1
	c2.8-2.1,6.4-3.1,11-3.1c9.3,0,13.9,4.2,13.9,12.5V276l0.1,4.2h-5.2v-6.3C274.2,278.6,269.9,281,264,281z M264.8,276.8
	c2.8,0.1,5.6-0.8,7.9-2.5c2.2-1.9,3.7-4.5,4.1-7.4v-7.3c-0.4,0.4-0.9,0.7-1.4,1c-0.7,0.4-1.4,0.6-2.1,0.8c-0.9,0.2-1.5,0.5-2,0.6
	s-1.4,0.3-2.6,0.6l-2.4,0.5c-2.3,0.5-4.5,1.4-6.5,2.6c-1.5,1.1-2.4,2.9-2.3,4.8c-0.1,1.7,0.6,3.4,1.9,4.6
	C260.8,276.3,262.8,276.9,264.8,276.8L264.8,276.8z"/>
<path class="st0" d="M329.5,281c-6.3,0.2-12.3-2.5-16.5-7.1c-4.3-4.8-6.5-11.1-6.5-18.8c0-7.9,2.2-14.2,6.6-19
	c4.2-4.7,10.3-7.3,16.7-7.1c5.2-0.2,10.3,1.5,14.5,4.7c3.9,3.1,6.3,8,7.3,14.7l-5.8,0.1c-1.5-9.7-6.8-14.5-16-14.5
	c-4.9-0.1-9.5,1.9-12.7,5.6c-3.3,3.8-4.9,8.8-4.9,15.3v0.4c0,6.5,1.6,11.6,4.9,15.3c3.1,3.7,7.8,5.7,12.6,5.6
	c9.4,0,14.7-4.9,16.1-14.8l5.8,0.1c-1,6.7-3.4,11.7-7.4,14.9C340,279.4,334.8,281.1,329.5,281z"/>
<path class="st0" d="M369.1,281c-3.7,0-6.6-0.9-8.8-2.8c-2.2-1.8-3.4-4.5-3.3-7.4c0-1.4,0.2-2.7,0.8-4c0.4-1.1,1.1-2,1.9-2.8
	c0.9-0.8,1.9-1.5,3-2c1.2-0.6,2.4-1,3.6-1.4c1.1-0.3,2.6-0.7,4.3-1c0.6-0.1,1.6-0.4,3.1-0.7c1.4-0.3,2.4-0.5,3-0.7
	c0.6-0.2,1.3-0.4,2.2-0.7c0.7-0.2,1.4-0.5,2-1c0.4-0.3,0.8-0.7,1.1-1.2v-0.5c0-4.6-2.9-6.9-8.8-6.9c-6.4,0-9.7,2.5-9.8,7.5v0.4h-5.4
	c0-4,1.5-7,4.2-9.1c2.8-2.1,6.4-3.1,11-3.1c9.3,0,13.9,4.2,13.9,12.5V276l0.1,4.1h-5.2v-6.3C379.4,278.6,375.1,281,369.1,281z
	 M370,276.8c2.8,0.1,5.6-0.8,7.9-2.5c2.3-1.9,3.7-4.5,4.1-7.4v-7.3c-0.4,0.4-0.9,0.7-1.4,1c-0.7,0.4-1.4,0.6-2.1,0.8
	c-0.9,0.2-1.5,0.5-2,0.6s-1.4,0.3-2.6,0.6l-2.4,0.5c-2.3,0.5-4.5,1.4-6.5,2.6c-1.5,1.1-2.4,2.9-2.3,4.8c-0.1,1.7,0.6,3.4,1.9,4.6
	C366,276.3,368,276.9,370,276.8L370,276.8z"/>
<path class="st0" d="M414.8,280.9c-5.1,0.2-10-2.5-12.5-7v20.2h-5.2v-49.8h5.2v6.5c2.7-4.8,6.8-7.2,12.5-7.2
	c4.5-0.2,8.9,1.7,11.9,5.1c3,3.4,4.6,7.9,4.6,13.5v0c0,5.7-1.5,10.2-4.6,13.6C423.7,279.2,419.3,281.1,414.8,280.9z M413.7,276.3
	c3.3,0.1,6.5-1.2,8.7-3.7c2.1-2.5,3.2-5.9,3.2-10.2v-0.6c0-4.3-1.1-7.7-3.2-10.1c-2.2-2.5-5.4-3.8-8.7-3.6c-3.3-0.1-6.5,1.3-8.5,3.8
	c-2.1,2.5-3.2,5.9-3.2,10.1v0.6c-0.2,3.6,1,7.1,3.2,10C407.3,275.1,410.5,276.5,413.7,276.3z"/>
<path class="st0" d="M444.8,231.9v6h-6v-6H444.8z M444.4,244.3v35.8H439v-35.8H444.4z"/>
<path class="st0" d="M471.4,280.1H466c-3,0-5.1-0.7-6.3-2.1c-1.2-1.4-1.8-3.5-1.9-6.4v-22.8h-6.5v-4.6h6.5v-7.5l5.2-3.5v11h8.5v4.6
	H463V271c-0.1,1.2,0.2,2.5,1,3.5c0.9,0.8,2.1,1.2,3.3,1.1h4.2L471.4,280.1z"/>
<path class="st0" d="M489.1,281c-3.7,0-6.6-0.9-8.8-2.8c-2.2-1.8-3.4-4.5-3.3-7.4c0-1.4,0.2-2.7,0.8-4c0.4-1.1,1.1-2,1.9-2.8
	c0.9-0.8,1.9-1.5,3-2c1.2-0.6,2.4-1,3.7-1.4c1.1-0.3,2.6-0.7,4.3-1c0.6-0.1,1.6-0.4,3.1-0.7s2.4-0.5,3-0.7c0.6-0.2,1.3-0.4,2.2-0.7
	c0.7-0.2,1.4-0.5,2-1c0.4-0.3,0.8-0.7,1.1-1.2v-0.5c0-4.6-2.9-6.9-8.8-6.9c-6.4,0-9.7,2.5-9.8,7.5v0.4h-5.4c0-4,1.5-7,4.2-9.1
	c2.8-2.1,6.4-3.1,11-3.1c9.3,0,13.9,4.2,13.9,12.5V276l0.1,4.1h-5.2v-6.3C499.4,278.6,495.1,281,489.1,281z M490,276.8
	c2.8,0.1,5.6-0.8,7.9-2.5c2.3-1.9,3.7-4.5,4.1-7.4v-7.3c-0.4,0.4-0.9,0.7-1.4,1c-0.7,0.4-1.4,0.6-2.1,0.8l-2,0.6
	c-0.5,0.2-1.4,0.4-2.6,0.6l-2.4,0.5c-2.3,0.5-4.5,1.4-6.5,2.6c-1.5,1.1-2.4,2.9-2.3,4.8c-0.1,1.7,0.6,3.4,1.9,4.6
	C486.1,276.3,488,276.9,490,276.8L490,276.8z"/>
<path class="st0" d="M522.4,228.9v51.2h-5.3v-51.2H522.4z"/>
<path class="st0" d="M259.2,0c-48,0-96,42.5-96,106.5s40.3,84.3,60.6,84.3s43.9-9.9,59.6-41.7c5.1,18.9,19.6,33.9,34.9,33.9
	s30-7.8,47.8-36.3c17.9-28.4,18.5-33,18.5-39.7s-3.5-12.4-6.9-12.4c-6.8,0-26.5,60.5-57.1,60.5c-12.6,0-27.4-12.3-27.4-26.8
	c0-4.7,2.4-8.6,2.4-12s-3-12.6-6.5-12.6c-6.1,0-9.7,21.4-20,34.9s-27.2,25.1-44,25.1s-49.3-16.6-49.3-56.3s36.9-80,84.9-80
	c26.3,0,42.2,14.8,43.7,26.2c2.2,16.7,13.4,11.7,13.4-2S309,0,259.2,0z"/>
</svg>
