<svg width="139" height="17" viewBox="0 0 139 17" fill="none" xmlns="http://www.w3.org/2000/svg">
<g clip-path="url(#clip0_17_96)">
<path d="M0.046875 15.8452V0.155171H10.4112V1.92306H2.03576V7.16046H9.08524V8.81784H2.03576V15.8452H0.046875ZM18.3515 15.9558C17.2466 15.9558 16.2447 15.7347 15.3461 15.2928C14.4474 14.8508 13.6665 14.2542 13.0036 13.5027C12.3554 12.7367 11.8544 11.8822 11.5009 10.9393C11.1473 9.98172 10.9705 9.00202 10.9705 8.00017C10.9705 6.9542 11.1547 5.95976 11.523 5.01688C11.906 4.05928 12.429 3.21215 13.092 2.47553C13.7697 1.72417 14.5579 1.13488 15.4565 0.707637C16.3552 0.265664 17.335 0.0446777 18.3957 0.0446777C19.5006 0.0446777 20.5024 0.273031 21.4011 0.729737C22.2998 1.18644 23.0732 1.79784 23.7214 2.56392C24.3697 3.33001 24.8706 4.18449 25.2242 5.12737C25.5777 6.07025 25.7545 7.03523 25.7545 8.02231C25.7545 9.06834 25.5704 10.0701 25.2021 11.0278C24.8338 11.9706 24.3108 12.8177 23.6331 13.5691C22.9701 14.3057 22.1893 14.8877 21.2907 15.3148C20.3919 15.7421 19.4122 15.9558 18.3515 15.9558ZM12.9815 8.00017C12.9815 8.79579 13.1067 9.56919 13.3572 10.3205C13.6224 11.0572 13.9907 11.7128 14.4621 12.2873C14.9335 12.8619 15.5008 13.3186 16.1638 13.6575C16.8267 13.9963 17.5633 14.1657 18.3736 14.1657C19.2133 14.1657 19.9647 13.9889 20.6277 13.6354C21.2907 13.2818 21.8504 12.8103 22.3071 12.221C22.7786 11.6317 23.1321 10.9688 23.3679 10.2321C23.6183 9.49553 23.7436 8.7516 23.7436 8.00017C23.7436 7.20465 23.611 6.43856 23.3458 5.70194C23.0954 4.96532 22.727 4.30972 22.2409 3.73515C21.7694 3.14586 21.2022 2.68915 20.5392 2.36504C19.891 2.02619 19.1691 1.85677 18.3736 1.85677C17.5339 1.85677 16.7825 2.03356 16.1196 2.38714C15.4565 2.72599 14.8894 3.19006 14.4179 3.77935C13.9612 4.36865 13.6076 5.03161 13.3572 5.76824C13.1067 6.49012 12.9815 7.23412 12.9815 8.00017ZM34.3299 15.9558C33.0776 15.9558 32.0243 15.7421 31.1697 15.3148C30.3153 14.8729 29.6302 14.2836 29.1146 13.5469C28.599 12.7956 28.2233 11.9485 27.9875 11.0056C27.7518 10.0628 27.634 9.0904 27.634 8.08856V0.155171H29.6229V8.08856C29.6229 8.85471 29.6965 9.60605 29.8438 10.3427C30.0059 11.0645 30.2637 11.7128 30.6173 12.2873C30.9709 12.8619 31.4497 13.3186 32.0537 13.6575C32.6578 13.9963 33.4091 14.1657 34.3078 14.1657C35.2212 14.1657 35.9799 13.9963 36.5839 13.6575C37.188 13.3039 37.6667 12.8398 38.0204 12.2652C38.3739 11.676 38.6244 11.0204 38.7717 10.2985C38.9337 9.57659 39.0148 8.83998 39.0148 8.08856V0.155171H41.0037V8.08856C41.0037 9.14932 40.8784 10.1585 40.628 11.1161C40.3923 12.059 40.0092 12.8914 39.4788 13.6133C38.9485 14.3351 38.256 14.9097 37.4016 15.337C36.5619 15.7494 35.538 15.9558 34.3299 15.9558ZM45.8628 3.82355V15.8452H43.8739V0.155171H45.5534L55.1442 12.4199V0.177269H57.1331V15.8452H55.321L45.8628 3.82355ZM60.2166 15.8452V0.155171H65.6529C67.3323 0.155171 68.7319 0.50875 69.8516 1.2159C70.986 1.90833 71.8331 2.85121 72.393 4.04454C72.9527 5.22313 73.2327 6.53432 73.2327 7.97812C73.2327 9.56919 72.9233 10.954 72.3045 12.1326C71.6858 13.3112 70.8092 14.2246 69.6748 14.8729C68.5404 15.5211 67.1998 15.8452 65.6529 15.8452H60.2166ZM71.2217 7.97812C71.2217 6.79951 71.0007 5.75351 70.5587 4.84009C70.1315 3.92668 69.5054 3.21215 68.6804 2.69652C67.8554 2.18088 66.8461 1.92306 65.6529 1.92306H62.2054V14.0773H65.6529C66.8609 14.0773 67.8774 13.8122 68.7024 13.2818C69.5275 12.7367 70.1536 12.0075 70.5809 11.094C71.0081 10.1659 71.2217 9.12727 71.2217 7.97812ZM86.0236 14.0773V15.8452H75.3723V0.155171H85.8253V1.92306H77.3612V7.00576H84.7201V8.66313H77.3612V14.0773H86.0236ZM88.0891 15.8452V0.155171H94.807C95.4998 0.155171 96.1336 0.302496 96.7077 0.597144C97.2826 0.87706 97.7834 1.2601 98.2102 1.74628C98.6378 2.21771 98.969 2.75545 99.2047 3.35948C99.4404 3.94878 99.5583 4.55281 99.5583 5.17157C99.5583 5.89346 99.4189 6.57852 99.1386 7.22675C98.8735 7.87498 98.4905 8.42744 97.9896 8.88417C97.5031 9.34082 96.929 9.65757 96.2658 9.83442L100.067 15.8452H97.8129L94.2329 10.2101H90.0781V15.8452H88.0891ZM90.0781 8.44217H94.8293C95.3748 8.44217 95.8461 8.29487 96.2435 8.00017C96.6559 7.69082 96.9728 7.28567 97.1942 6.78478C97.4299 6.28387 97.5477 5.74614 97.5477 5.17157C97.5477 4.58228 97.4148 4.04454 97.1496 3.55837C96.8844 3.05746 96.5381 2.65969 96.1113 2.36504C95.6837 2.07039 95.2123 1.92306 94.6972 1.92306H90.0781V8.44217Z" fill="#133332"/>
<path d="M100.912 12.6413C101.103 12.7739 101.442 12.9359 101.928 13.1274C102.414 13.3043 102.989 13.3926 103.652 13.3926C104.433 13.3926 105.022 13.2232 105.419 12.8843C105.818 12.5308 106.083 11.9857 106.215 11.2491C106.348 10.5125 106.414 9.5548 106.414 8.37619V0.155518H109.464V8.13318C109.464 9.31171 109.398 10.3872 109.265 11.3596C109.132 12.3319 108.874 13.1716 108.491 13.8788C108.108 14.586 107.526 15.131 106.746 15.5141C105.979 15.8972 104.956 16.0887 103.674 16.0887C102.967 16.0887 102.333 16.0076 101.773 15.8456C101.214 15.6835 100.698 15.4404 100.226 15.1163L100.912 12.6413ZM115.798 0.155518H118.891L124.659 15.8456H121.521L120.063 11.9341H114.582L113.145 15.8456H110.007L115.798 0.155518ZM119.51 9.79057L117.344 3.31563L115.091 9.79057H119.51ZM125.717 15.8456V0.155518H132.656C133.378 0.155518 134.041 0.302842 134.645 0.597491C135.264 0.892137 135.794 1.28992 136.236 1.79082C136.693 2.29172 137.039 2.85156 137.274 3.47032C137.525 4.08908 137.65 4.72258 137.65 5.37081C137.65 6.37261 137.393 7.29339 136.877 8.13318C136.376 8.9729 135.691 9.57694 134.822 9.9452L138.402 15.8456H135.042L131.816 10.5861H128.766V15.8456H125.717ZM128.766 7.91215H132.59C133.164 7.91215 133.635 7.66906 134.004 7.1829C134.387 6.68199 134.579 6.07797 134.579 5.37081C134.579 4.88463 134.475 4.45002 134.269 4.06699C134.063 3.68394 133.798 3.38192 133.474 3.16094C133.164 2.93995 132.826 2.82945 132.457 2.82945H128.766V7.91215Z" fill="#133332"/>
</g>
<defs>
<clipPath id="clip0_17_96">
<rect width="138.468" height="16.1639" fill="white"/>
</clipPath>
</defs>
</svg>
