<svg width="52" height="52" viewBox="0 0 52 52" fill="none" xmlns="http://www.w3.org/2000/svg">
<circle cx="26" cy="26" r="26" fill="#133332"/>
<path d="M33.875 21.875L27.125 15.125M33.875 21.875H28.625C28.2272 21.875 27.8456 21.717 27.5643 21.4357C27.283 21.1544 27.125 20.7728 27.125 20.375V15.125M33.875 21.875V23.375M27.125 15.125H18.125C17.3294 15.125 16.5663 15.4411 16.0037 16.0037C15.4411 16.5663 15.125 17.3294 15.125 18.125V33.875C15.125 34.6706 15.4411 35.4337 16.0037 35.9963C16.5663 36.5589 17.3294 36.875 18.125 36.875H23.375M28.625 30.275L32.75 28.625L36.875 30.275C36.875 30.275 36.875 36.875 32.75 36.875C28.625 36.875 28.625 30.275 28.625 30.275Z" stroke="#AAE3B2" stroke-linecap="round" stroke-linejoin="round"/>
</svg>
