<svg width="52" height="52" viewBox="0 0 52 52" fill="none" xmlns="http://www.w3.org/2000/svg">
<circle cx="26" cy="26" r="26" fill="#133332"/>
<path d="M18.875 36.875H15.125V27.125H18.875V30.125M18.875 36.875V30.125M18.875 36.875C29 36.875 36.875 32 36.875 32V28.625H27.875M18.875 30.125L24.17 27.302C24.3869 27.1861 24.629 27.1253 24.875 27.125H26.375C26.7728 27.125 27.1544 27.283 27.4357 27.5643C27.717 27.8456 27.875 28.2272 27.875 28.625M27.875 28.625V30.5L24.125 32.375M35 23.375H35.1875C35.6351 23.375 36.0643 23.1972 36.3807 22.8807C36.6972 22.5643 36.875 22.1351 36.875 21.6875C36.875 21.2399 36.6972 20.8107 36.3807 20.4943C36.0643 20.1778 35.6351 20 35.1875 20H34.8125C34.3649 20 33.9357 19.8222 33.6193 19.5057C33.3028 19.1893 33.125 18.7601 33.125 18.3125C33.125 17.8649 33.3028 17.4357 33.6193 17.1193C33.9357 16.8028 34.3649 16.625 34.8125 16.625H35M35 23.375H33.125M35 23.375V24.875M35 16.625H36.875M35 16.625V15.125" stroke="#AAE3B2" stroke-linecap="round" stroke-linejoin="round"/>
</svg>
