<svg width="52" height="52" viewBox="0 0 52 52" fill="none" xmlns="http://www.w3.org/2000/svg">
<circle cx="26" cy="26" r="26" fill="#133332"/>
<path d="M29.4197 18.5C29.4197 20.364 27.9597 21.875 26.1588 21.875C24.3579 21.875 22.8979 20.364 22.8979 18.5C22.8979 16.636 24.3579 15.125 26.1588 15.125C27.9597 15.125 29.4197 16.636 29.4197 18.5Z" stroke="#AAE3B2" stroke-linecap="round" stroke-linejoin="round"/>
<path d="M26.1588 22.625C21.2313 22.625 19.9994 25.25 19.9994 29.375H22.8979V33.875C22.8979 35.5319 24.1956 36.875 25.7965 36.875H26.5211C28.122 36.875 29.4197 35.5319 29.4197 33.875V29.375H32.3182C32.3182 25.25 31.0863 22.625 26.1588 22.625Z" stroke="#AAE3B2" stroke-linecap="round" stroke-linejoin="round"/>
</svg>
