<svg width="52" height="52" viewBox="0 0 52 52" fill="none" xmlns="http://www.w3.org/2000/svg">
<circle cx="26" cy="26" r="25.5" fill="#133332" stroke="#AAE3B2"/>
<path d="M15.9688 30.3333C15.9688 27.9401 17.8432 26 20.1555 26C22.4679 26 24.3423 27.9401 24.3423 30.3333C24.3423 32.7265 22.4679 34.6667 20.1555 34.6667H15.9688V30.3333Z" stroke="#AAE3B2" stroke-linecap="round" stroke-linejoin="round"/>
<path d="M24.63 30.6195C25.6062 30.469 26.5061 29.9609 27.1589 29.1763L33.9541 21.0103C34.9849 19.6007 34.853 17.6201 33.6452 16.3701C32.4375 15.12 30.5239 14.9836 29.1619 16.0504L21.272 23.0834C20.529 23.7456 20.0427 24.6536 19.8867 25.6408" stroke="#AAE3B2" stroke-linecap="round" stroke-linejoin="round"/>
<path d="M16.293 34.333L19.1915 31.333" stroke="#AAE3B2" stroke-linecap="round" stroke-linejoin="round"/>
</svg>
