<svg width="104" height="104" viewBox="0 0 104 104" fill="none" xmlns="http://www.w3.org/2000/svg">
<path d="M52.0033 57.7739C55.1933 57.7739 57.7794 55.1879 57.7794 51.9978C57.7794 48.8077 55.1933 46.2217 52.0033 46.2217C48.8132 46.2217 46.2272 48.8077 46.2272 51.9978C46.2272 55.1879 48.8132 57.7739 52.0033 57.7739Z" fill="#133332"/>
<path d="M52.0033 11.5523C55.1933 11.5523 57.7794 8.96621 57.7794 5.77613C57.7794 2.58606 55.1933 0 52.0033 0C48.8132 0 46.2272 2.58606 46.2272 5.77613C46.2272 8.96621 48.8132 11.5523 52.0033 11.5523Z" fill="#133332"/>
<path d="M51.9985 40.4552C58.3875 40.4552 63.5669 35.2758 63.5669 28.8868C63.5669 22.4977 58.3875 17.3184 51.9985 17.3184C45.6095 17.3184 40.4302 22.4977 40.4302 28.8868C40.4302 35.2758 45.6095 40.4552 51.9985 40.4552Z" fill="#133332"/>
<path d="M52.0033 57.7739C55.1933 57.7739 57.7794 55.1879 57.7794 51.9978C57.7794 48.8077 55.1933 46.2217 52.0033 46.2217C48.8132 46.2217 46.2272 48.8077 46.2272 51.9978C46.2272 55.1879 48.8132 57.7739 52.0033 57.7739Z" fill="#133332"/>
<path d="M51.9985 40.4552C58.3875 40.4552 63.5669 35.2758 63.5669 28.8868C63.5669 22.4977 58.3875 17.3184 51.9985 17.3184C45.6095 17.3184 40.4302 22.4977 40.4302 28.8868C40.4302 35.2758 45.6095 40.4552 51.9985 40.4552Z" fill="#133332"/>
<path d="M52.0033 57.7739C55.1933 57.7739 57.7794 55.1879 57.7794 51.9978C57.7794 48.8077 55.1933 46.2217 52.0033 46.2217C48.8132 46.2217 46.2272 48.8077 46.2272 51.9978C46.2272 55.1879 48.8132 57.7739 52.0033 57.7739Z" fill="#133332"/>
<path d="M98.2239 57.7739C101.414 57.7739 104 55.1879 104 51.9978C104 48.8077 101.414 46.2217 98.2239 46.2217C95.0338 46.2217 92.4478 48.8077 92.4478 51.9978C92.4478 55.1879 95.0338 57.7739 98.2239 57.7739Z" fill="#133332"/>
<path d="M75.1097 34.6624C78.2998 34.6624 80.8858 32.0763 80.8858 28.8862C80.8858 25.6962 78.2998 23.1101 75.1097 23.1101C71.9197 23.1101 69.3336 25.6962 69.3336 28.8862C69.3336 32.0763 71.9197 34.6624 75.1097 34.6624Z" fill="#133332"/>
<path d="M28.8824 34.6624C32.0724 34.6624 34.6585 32.0763 34.6585 28.8862C34.6585 25.6962 32.0724 23.1101 28.8824 23.1101C25.6923 23.1101 23.1063 25.6962 23.1063 28.8862C23.1063 32.0763 25.6923 34.6624 28.8824 34.6624Z" fill="#133332"/>
<path d="M28.8824 80.8885C32.0724 80.8885 34.6585 78.3024 34.6585 75.1123C34.6585 71.9222 32.0724 69.3362 28.8824 69.3362C25.6923 69.3362 23.1063 71.9222 23.1063 75.1123C23.1063 78.3024 25.6923 80.8885 28.8824 80.8885Z" fill="#133332"/>
<path d="M75.1097 80.8885C78.2998 80.8885 80.8858 78.3024 80.8858 75.1123C80.8858 71.9222 78.2998 69.3362 75.1097 69.3362C71.9197 69.3362 69.3336 71.9222 69.3336 75.1123C69.3336 78.3024 71.9197 80.8885 75.1097 80.8885Z" fill="#133332"/>
<path d="M75.1124 63.5672C81.5014 63.5672 86.6807 58.3879 86.6807 51.9988C86.6807 45.6098 81.5014 40.4304 75.1124 40.4304C68.7234 40.4304 63.5441 45.6098 63.5441 51.9988C63.5441 58.3879 68.7234 63.5672 75.1124 63.5672Z" fill="#133332"/>
<path d="M52.0033 57.7739C55.1933 57.7739 57.7794 55.1879 57.7794 51.9978C57.7794 48.8077 55.1933 46.2217 52.0033 46.2217C48.8132 46.2217 46.2272 48.8077 46.2272 51.9978C46.2272 55.1879 48.8132 57.7739 52.0033 57.7739Z" fill="#133332"/>
<path d="M52.0033 104C55.1933 104 57.7794 101.414 57.7794 98.2239C57.7794 95.0338 55.1933 92.4478 52.0033 92.4478C48.8132 92.4478 46.2272 95.0338 46.2272 98.2239C46.2272 101.414 48.8132 104 52.0033 104Z" fill="#133332"/>
<path d="M51.9985 86.6812C58.3875 86.6812 63.5669 81.5019 63.5669 75.1128C63.5669 68.7238 58.3875 63.5444 51.9985 63.5444C45.6095 63.5444 40.4302 68.7238 40.4302 75.1128C40.4302 81.5019 45.6095 86.6812 51.9985 86.6812Z" fill="#133332"/>
<path d="M52.0033 57.7739C55.1933 57.7739 57.7794 55.1879 57.7794 51.9978C57.7794 48.8077 55.1933 46.2217 52.0033 46.2217C48.8132 46.2217 46.2272 48.8077 46.2272 51.9978C46.2272 55.1879 48.8132 57.7739 52.0033 57.7739Z" fill="#133332"/>
<path d="M5.77611 57.7739C8.96616 57.7739 11.5522 55.1879 11.5522 51.9978C11.5522 48.8077 8.96616 46.2217 5.77611 46.2217C2.58605 46.2217 0 48.8077 0 51.9978C0 55.1879 2.58605 57.7739 5.77611 57.7739Z" fill="#133332"/>
<path d="M28.8851 63.5672C35.2741 63.5672 40.4535 58.3879 40.4535 51.9988C40.4535 45.6098 35.2741 40.4304 28.8851 40.4304C22.4961 40.4304 17.3168 45.6098 17.3168 51.9988C17.3168 58.3879 22.4961 63.5672 28.8851 63.5672Z" fill="#133332"/>
</svg>
